HIERARCHY
ROOT Hips
{
	OFFSET 0.000000 71.427986 0.000000
	CHANNELS 6 Xposition Yposition Zposition Xrotation Yrotation Zrotation
	JOINT Pelvis
	{
		OFFSET 0.000000 0.000000 0.000000
		CHANNELS 3 Xrotation Yrotation Zrotation
		JOINT LeftUpLeg
		{
			OFFSET 6.797100 -2.508499 -1.318700
			CHANNELS 3 Xrotation Yrotation Zrotation
			JOINT LeftLeg
			{
				OFFSET 0.069008 -29.241863 0.690200
				CHANNELS 3 Xrotation Yrotation Zrotation
				JOINT LeftFoot
				{
					OFFSET -0.069008 -29.568123 -0.266800
					CHANNELS 3 Xrotation Yrotation Zrotation
					JOINT LeftToeBase
					{
						OFFSET 3.145500 -8.631000 16.059900
						CHANNELS 3 Xrotation Yrotation Zrotation
						End Site
						{
							OFFSET 0.000000 18.501587 0.000000
						}
					}
				}
			}
			JOINT Left_ShortSleeve
			{
				OFFSET 0.265923 -10.480953 1.153800
				CHANNELS 3 Xrotation Yrotation Zrotation
				End Site
				{
					OFFSET 1.725763 19.823879 0.000000
				}
			}
		}
		JOINT RightUpLeg
		{
			OFFSET -6.797100 -2.508499 -1.318700
			CHANNELS 3 Xrotation Yrotation Zrotation
			JOINT RightLeg
			{
				OFFSET -0.082453 -29.241932 0.688000
				CHANNELS 3 Xrotation Yrotation Zrotation
				JOINT RightFoot
				{
					OFFSET 0.082453 -29.568058 -0.264600
					CHANNELS 3 Xrotation Yrotation Zrotation
					JOINT RightToeBase
					{
						OFFSET -3.115300 -8.682800 16.113400
						CHANNELS 3 Xrotation Yrotation Zrotation
						End Site
						{
							OFFSET 0.000000 18.567114 0.000000
						}
					}
				}
			}
			JOINT Right_ShortSleeve
			{
				OFFSET -0.265923 -10.480953 1.153800
				CHANNELS 3 Xrotation Yrotation Zrotation
				End Site
				{
					OFFSET -1.725766 19.823910 0.000000
				}
			}
		}
	}
	JOINT Spine
	{
		OFFSET 0.000000 13.368103 0.470500
		CHANNELS 3 Xrotation Yrotation Zrotation
		JOINT Spine1
		{
			OFFSET 0.147000 13.837402 0.538800
			CHANNELS 3 Xrotation Yrotation Zrotation
			JOINT Spine2
			{
				OFFSET 0.168000 16.242897 -1.435500
				CHANNELS 3 Xrotation Yrotation Zrotation
				JOINT Neck
				{
					OFFSET 0.217200 18.631500 -1.679100
					CHANNELS 3 Xrotation Yrotation Zrotation
					JOINT Head
					{
						OFFSET 0.000000 6.599396 1.385900
						CHANNELS 3 Xrotation Yrotation Zrotation
						JOINT Hat
						{
							OFFSET -0.532200 27.220596 -10.096100
							CHANNELS 3 Xrotation Yrotation Zrotation
							End Site
							{
								OFFSET 0.000000 22.029861 0.000000
							}
						}
						JOINT HairD
						{
							OFFSET -10.777400 17.437393 -1.325900
							CHANNELS 3 Xrotation Yrotation Zrotation
							JOINT HairD1
							{
								OFFSET -3.290299 -11.051193 1.062200
								CHANNELS 3 Xrotation Yrotation Zrotation
								End Site
								{
									OFFSET 0.000000 11.579437 0.000000
								}
							}
						}
						JOINT HairB
						{
							OFFSET -10.777400 17.437393 1.467900
							CHANNELS 3 Xrotation Yrotation Zrotation
							JOINT HairB1
							{
								OFFSET -1.561200 -12.956299 3.590200
								CHANNELS 3 Xrotation Yrotation Zrotation
								End Site
								{
									OFFSET 0.000000 13.534866 0.000000
								}
							}
						}
						JOINT HairA
						{
							OFFSET 9.713100 17.437393 1.467900
							CHANNELS 3 Xrotation Yrotation Zrotation
							JOINT HairA1
							{
								OFFSET 1.561200 -12.956299 3.590200
								CHANNELS 3 Xrotation Yrotation Zrotation
								End Site
								{
									OFFSET 0.000000 13.534866 0.000000
								}
							}
						}
						JOINT HairC
						{
							OFFSET 9.713100 17.437393 -1.325900
							CHANNELS 3 Xrotation Yrotation Zrotation
							JOINT HairC1
							{
								OFFSET 3.290300 -11.051193 1.062200
								CHANNELS 3 Xrotation Yrotation Zrotation
								End Site
								{
									OFFSET 0.000000 11.579437 0.000000
								}
							}
						}
					}
				}
				JOINT LeftShoulder
				{
					OFFSET 5.101800 15.108002 -2.763700
					CHANNELS 3 Xrotation Yrotation Zrotation
					JOINT LeftArm
					{
						OFFSET 9.825497 2.506317 -1.597400
						CHANNELS 3 Xrotation Yrotation Zrotation
						JOINT LeftForeArm
						{
							OFFSET 21.966244 0.000000 0.000000
							CHANNELS 3 Xrotation Yrotation Zrotation
							JOINT LeftHand
							{
								OFFSET 33.879036 0.000000 0.000000
								CHANNELS 3 Xrotation Yrotation Zrotation
								JOINT LeftHandThumb1
								{
									OFFSET 6.715286 -2.359680 3.363841
									CHANNELS 3 Xrotation Yrotation Zrotation
									JOINT LeftHandThumb2
									{
										OFFSET 2.507072 -1.447464 1.447461
										CHANNELS 3 Xrotation Yrotation Zrotation
										JOINT LeftHandThumb3
										{
											OFFSET 2.898338 -1.673355 1.673357
											CHANNELS 3 Xrotation Yrotation Zrotation
											End Site
											{
												OFFSET -0.295959 3.727692 -0.131651
											}
										}
									}
								}
								JOINT LeftHandIndex1
								{
									OFFSET 14.190811 -0.254547 3.840278
									CHANNELS 3 Xrotation Yrotation Zrotation
									JOINT LeftHandIndex2
									{
										OFFSET 3.551727 0.000000 -0.000000
										CHANNELS 3 Xrotation Yrotation Zrotation
										JOINT LeftHandIndex3
										{
											OFFSET 2.894196 0.000000 0.000000
											CHANNELS 3 Xrotation Yrotation Zrotation
											End Site
											{
												OFFSET -1.000603 2.690872 0.366626
											}
										}
									}
								}
								JOINT LeftHandMiddle1
								{
									OFFSET 13.776489 0.000000 0.000000
									CHANNELS 3 Xrotation Yrotation Zrotation
									JOINT LeftHandMiddle2
									{
										OFFSET 3.438232 0.000000 0.000000
										CHANNELS 3 Xrotation Yrotation Zrotation
										JOINT LeftHandMiddle3
										{
											OFFSET 3.691551 0.000000 0.000000
											CHANNELS 3 Xrotation Yrotation Zrotation
											End Site
											{
												OFFSET -1.082298 3.499527 0.457670
											}
										}
									}
								}
								JOINT LeftHandRing1
								{
									OFFSET 13.966164 -0.268127 -3.067488
									CHANNELS 3 Xrotation Yrotation Zrotation
									JOINT LeftHandRing2
									{
										OFFSET 3.162567 0.000000 0.000000
										CHANNELS 3 Xrotation Yrotation Zrotation
										JOINT LeftHandRing3
										{
											OFFSET 3.324348 0.000000 0.000000
											CHANNELS 3 Xrotation Yrotation Zrotation
											End Site
											{
												OFFSET -0.861900 3.184998 0.405154
											}
										}
									}
								}
								JOINT LeftHandPinky1
								{
									OFFSET 13.131393 -0.168503 -5.746925
									CHANNELS 3 Xrotation Yrotation Zrotation
									JOINT LeftHandPinky2
									{
										OFFSET 2.849182 0.000000 0.000000
										CHANNELS 3 Xrotation Yrotation Zrotation
										JOINT LeftHandPinky3
										{
											OFFSET 2.805038 0.000000 0.000000
											CHANNELS 3 Xrotation Yrotation Zrotation
											End Site
											{
												OFFSET -0.882500 2.642609 0.325652
											}
										}
									}
								}
							}
							JOINT Left_Sleeve
							{
								OFFSET 6.592125 -0.646545 0.805568
								CHANNELS 3 Xrotation Yrotation Zrotation
								End Site
								{
									OFFSET -0.000179 20.275787 -0.000000
								}
							}
						}
					}
				}
				JOINT RightShoulder
				{
					OFFSET -5.731700 15.108002 -2.763700
					CHANNELS 3 Xrotation Yrotation Zrotation
					JOINT RightArm
					{
						OFFSET -9.825497 2.506317 -1.597400
						CHANNELS 3 Xrotation Yrotation Zrotation
						JOINT RightForeArm
						{
							OFFSET -21.966242 0.000000 0.000000
							CHANNELS 3 Xrotation Yrotation Zrotation
							JOINT RightHand
							{
								OFFSET -33.879032 0.000000 0.000000
								CHANNELS 3 Xrotation Yrotation Zrotation
								JOINT RightHandThumb1
								{
									OFFSET -6.715286 -2.359680 3.363841
									CHANNELS 3 Xrotation Yrotation Zrotation
									JOINT RightHandThumb2
									{
										OFFSET -2.507072 -1.447464 1.447461
										CHANNELS 3 Xrotation Yrotation Zrotation
										JOINT RightHandThumb3
										{
											OFFSET -2.898338 -1.673355 1.673357
											CHANNELS 3 Xrotation Yrotation Zrotation
											End Site
											{
												OFFSET 0.295959 3.727692 -0.131651
											}
										}
									}
								}
								JOINT RightHandIndex1
								{
									OFFSET -14.190811 -0.254547 3.840278
									CHANNELS 3 Xrotation Yrotation Zrotation
									JOINT RightHandIndex2
									{
										OFFSET -3.551727 0.000000 -0.000000
										CHANNELS 3 Xrotation Yrotation Zrotation
										JOINT RightHandIndex3
										{
											OFFSET -2.894196 0.000000 0.000000
											CHANNELS 3 Xrotation Yrotation Zrotation
											End Site
											{
												OFFSET 1.000603 2.690872 0.366626
											}
										}
									}
								}
								JOINT RightHandMiddle1
								{
									OFFSET -13.776489 0.000000 0.000000
									CHANNELS 3 Xrotation Yrotation Zrotation
									JOINT RightHandMiddle2
									{
										OFFSET -3.438232 0.000000 0.000000
										CHANNELS 3 Xrotation Yrotation Zrotation
										JOINT RightHandMiddle3
										{
											OFFSET -3.691551 0.000000 0.000000
											CHANNELS 3 Xrotation Yrotation Zrotation
											End Site
											{
												OFFSET 1.082298 3.499527 0.457670
											}
										}
									}
								}
								JOINT RightHandRing1
								{
									OFFSET -13.966164 -0.268127 -3.067488
									CHANNELS 3 Xrotation Yrotation Zrotation
									JOINT RightHandRing2
									{
										OFFSET -3.162567 0.000000 0.000000
										CHANNELS 3 Xrotation Yrotation Zrotation
										JOINT RightHandRing3
										{
											OFFSET -3.324348 0.000000 0.000000
											CHANNELS 3 Xrotation Yrotation Zrotation
											End Site
											{
												OFFSET 0.861900 3.184998 0.405154
											}
										}
									}
								}
								JOINT RightHandPinky1
								{
									OFFSET -13.131393 -0.168503 -5.746925
									CHANNELS 3 Xrotation Yrotation Zrotation
									JOINT RightHandPinky2
									{
										OFFSET -2.849182 0.000000 0.000000
										CHANNELS 3 Xrotation Yrotation Zrotation
										JOINT RightHandPinky3
										{
											OFFSET -2.805038 0.000000 0.000000
											CHANNELS 3 Xrotation Yrotation Zrotation
											End Site
											{
												OFFSET 0.882500 2.642609 0.325652
											}
										}
									}
								}
							}
							JOINT Right_Sleeve
							{
								OFFSET -6.592125 -0.646545 0.805568
								CHANNELS 3 Xrotation Yrotation Zrotation
								End Site
								{
									OFFSET 0.000179 20.275787 -0.000000
								}
							}
						}
					}
				}
				JOINT Bind_Right_JacketString
				{
					OFFSET -3.534800 11.969597 7.200700
					CHANNELS 3 Xrotation Yrotation Zrotation
					JOINT Bind_Right_JacketString1
					{
						OFFSET -0.319900 -6.102600 2.794100
						CHANNELS 3 Xrotation Yrotation Zrotation
						End Site
						{
							OFFSET 0.000000 6.719452 0.000000
						}
					}
				}
				JOINT Bind_Left_JacketString
				{
					OFFSET 2.904800 11.969597 7.200700
					CHANNELS 3 Xrotation Yrotation Zrotation
					JOINT Bind_Left_JacketString1
					{
						OFFSET 0.364800 -5.904503 3.186800
						CHANNELS 3 Xrotation Yrotation Zrotation
						End Site
						{
							OFFSET 0.000000 6.719513 0.000000
						}
					}
				}
				JOINT HairE
				{
					OFFSET 5.915200 17.612701 -11.592200
					CHANNELS 3 Xrotation Yrotation Zrotation
					JOINT HairE1
					{
						OFFSET 0.289200 -7.171898 -1.284500
						CHANNELS 3 Xrotation Yrotation Zrotation
						End Site
						{
							OFFSET 0.000000 7.291756 0.000000
						}
					}
				}
				JOINT HairF
				{
					OFFSET -0.864800 17.612701 -11.592200
					CHANNELS 3 Xrotation Yrotation Zrotation
					JOINT HairF1
					{
						OFFSET 0.000000 -14.087097 -2.127501
						CHANNELS 3 Xrotation Yrotation Zrotation
						End Site
						{
							OFFSET 0.000000 14.246841 0.000000
						}
					}
				}
				JOINT HairG
				{
					OFFSET -8.087700 17.612701 -11.592200
					CHANNELS 3 Xrotation Yrotation Zrotation
					JOINT HairG1
					{
						OFFSET -0.293600 -6.081398 -0.910100
						CHANNELS 3 Xrotation Yrotation Zrotation
						End Site
						{
							OFFSET 0.000000 6.156120 0.000000
						}
					}
				}
			}
		}
	}
	JOINT Pouch
	{
		OFFSET 0.000000 4.394501 10.847300
		CHANNELS 3 Xrotation Yrotation Zrotation
		End Site
		{
			OFFSET 0.000000 21.880577 0.000000
		}
	}
	JOINT Bag
	{
		OFFSET -13.229000 4.813004 -0.593300
		CHANNELS 3 Xrotation Yrotation Zrotation
		End Site
		{
			OFFSET 0.000000 21.880577 0.000000
		}
	}
	JOINT OccupyGuyFacialAnim_Joint
	{
		OFFSET 1.000000 -70.206398 -1.655000
		CHANNELS 3 Xrotation Yrotation Zrotation
		End Site
		{
			OFFSET 0.000000 21.880577 0.000000
		}
	}
}
MOTION
Frames: 5
Frame Time: 0.033333
1.166575 63.209488 1.457840 14.154658 -17.492907 1.278885 0.000000 -0.000000 -0.000000 -63.999781 8.703019 15.458298 122.687669 -8.687955 0.032503 -37.626884 6.033929 8.924789 -0.000000 0.000000 -0.000000 0.000004 -0.000000 -0.000000 -19.460785 -3.218644 5.200238 52.660523 -2.219928 -4.214041 -38.150633 -1.850110 2.290283 -0.000000 0.000000 -0.000000 0.000000 0.000000 -0.000000 36.349720 16.283436 -14.542866 0.218858 3.082964 8.072999 -0.101758 3.632396 7.842903 -0.979671 0.350798 -5.389338 -31.560580 0.017640 -10.899542 0.000000 0.000000 -0.000000 0.000000 0.000000 -0.000000 0.000000 0.000000 -0.000000 0.000000 0.000000 -0.000000 -0.000001 0.000000 0.000000 0.000000 0.000000 -0.000000 -0.000001 0.000000 0.000000 0.000000 0.000000 -0.000000 0.000000 0.000000 -0.000000 5.025549 6.335405 2.101891 46.204741 0.040094 -66.783172 0.000044 -108.291796 0.000046 -2.817205 -11.362972 19.894606 -6.414428 -8.233360 17.003696 23.718551 30.327580 -9.434093 -0.000002 0.000001 0.000000 -0.886484 2.921752 -35.743715 3.751468 5.462584 -68.937639 -0.000000 -0.000002 -0.000002 4.637164 8.633563 -54.179034 3.954643 5.536215 -71.057436 0.000000 -0.000003 0.000000 6.783426 9.445338 -61.737527 3.498534 5.358802 -66.255676 0.000000 -0.000001 -0.000001 8.450419 18.237517 -61.947978 3.519924 5.368113 -66.484529 -0.000001 0.000002 0.000001 0.000000 -0.000001 -0.000000 -0.226237 13.923061 1.315621 -52.032186 26.156973 64.729962 0.000130 108.504044 -0.000142 12.299272 17.241426 0.772503 -6.697001 7.238156 -17.467379 12.475122 -21.107137 -8.932719 -0.000000 0.000004 0.000001 6.999843 -10.345464 49.443879 3.265924 -4.444939 72.600744 -0.000002 0.000003 -0.000003 6.612958 -9.280515 55.006467 2.605486 -4.181769 63.836396 0.000003 0.000000 -0.000001 8.952932 -9.439633 64.627475 2.681013 -4.217941 64.867495 0.000001 -0.000002 0.000003 6.597713 -18.997848 54.203592 2.600885 -4.179532 63.773476 0.000001 0.000001 0.000001 -0.000002 -0.000004 -0.000003 0.000001 0.000000 0.000001 -0.000004 -0.000000 0.000000 0.000001 0.000000 0.000001 0.000001 0.000000 0.000001 0.000001 0.000000 0.000001 -0.000004 -0.000000 0.000000 0.000001 0.000000 0.000001 0.000001 0.000000 0.000001 0.000001 0.000000 0.000001 -0.000004 -0.000000 0.000000 0.000000 -0.000000 -0.000000 0.000000 -0.000000 -0.000000 0.000000 -0.000000 -0.000000 
0.408151 65.118973 16.023012 12.565974 -4.650619 0.717003 -0.000001 -0.000000 -0.000000 -80.116036 1.107469 -1.179458 110.707995 -1.466170 0.785341 -8.361659 -13.948159 20.195560 -0.000002 -0.000000 0.000000 0.000001 0.000000 0.000001 4.310367 -9.161728 5.969210 30.372256 -5.486201 -6.104782 -27.123788 -1.548592 6.607864 0.000000 -0.000001 0.000001 0.000001 0.000002 -0.000001 38.480514 8.288883 -9.670733 -3.855174 1.562945 5.346220 -3.983164 1.903678 5.154964 1.840509 -0.116206 -3.380422 -26.624298 -3.898345 -6.155747 0.000000 -0.000000 0.000000 0.000000 -0.000000 0.000000 0.000000 -0.000000 0.000000 0.000000 -0.000000 0.000000 0.000000 -0.000000 0.000000 0.000000 -0.000000 0.000000 0.000000 -0.000000 0.000000 0.000000 -0.000000 0.000000 0.000000 -0.000000 0.000000 4.321918 4.359253 5.206147 48.923183 3.718218 -75.001583 -0.000001 -115.075505 -0.000002 5.863281 -12.433607 23.133564 -6.414427 -8.233363 17.003706 21.670169 27.205115 -7.086270 -0.000000 -0.000000 0.000001 1.666934 4.428722 -29.110878 3.780289 5.473543 -69.240107 -0.000001 0.000000 -0.000002 7.414472 12.264510 -44.031603 4.090114 5.580657 -72.455917 -0.000000 0.000003 0.000001 7.319326 11.379736 -48.413846 3.528183 5.371694 -66.572802 -0.000003 -0.000003 -0.000003 7.440666 19.498343 -56.729400 3.468383 5.345501 -65.932506 0.000002 -0.000001 0.000001 0.000001 0.000001 -0.000001 -0.627639 12.171895 6.369355 -25.298568 26.034034 53.411475 0.445649 90.001218 -0.497690 8.172723 24.466822 1.424212 -6.608269 9.725869 -18.392601 15.197775 -25.981857 -7.139514 0.000001 -0.000001 0.000000 7.896885 -6.510990 33.490207 3.286098 -4.451180 72.860749 -0.000001 -0.000001 0.000000 3.225533 -8.220168 35.347185 2.585159 -4.171755 63.557403 -0.000000 0.000000 -0.000001 7.236304 -9.727847 54.919133 2.508746 -4.132978 62.502050 -0.000001 0.000000 -0.000002 0.265707 -20.047821 36.404191 2.330691 -4.035537 60.002426 -0.000001 -0.000001 -0.000001 -0.000001 -0.000000 0.000000 -0.000001 0.000000 -0.000000 -0.000001 0.000000 -0.000000 -0.000001 0.000000 -0.000001 -0.000001 0.000000 -0.000001 -0.000001 0.000000 -0.000000 -0.000001 0.000000 -0.000000 -0.000001 0.000000 -0.000001 -0.000001 0.000000 -0.000001 -0.000001 0.000000 -0.000000 -0.000001 0.000000 -0.000000 -0.000001 -0.000000 -0.000000 -0.000001 -0.000000 -0.000000 -0.000001 -0.000000 -0.000000 
-0.396147 67.205658 30.687817 13.555774 1.029991 2.226193 0.000001 0.000000 0.000000 -78.633980 3.044045 -4.791517 86.908959 2.325027 0.569911 -9.446210 -11.492909 14.101673 0.000001 -0.000000 -0.000000 -0.000001 0.000000 0.000001 9.631409 -7.883638 8.534323 26.425864 -3.527616 -9.976521 4.508173 3.455735 1.450514 -0.000002 0.000000 -0.000000 0.000000 -0.000000 -0.000000 37.138245 4.934652 -10.470601 -5.034730 1.213559 2.925023 -5.083873 1.354879 2.767541 3.550403 -0.561406 -2.060951 -24.482798 -9.567222 -1.287769 0.000001 0.000000 -0.000000 0.000001 0.000000 -0.000000 0.000001 0.000000 0.000000 0.000001 0.000000 -0.000000 -0.000001 0.000000 -0.000000 0.000001 0.000000 -0.000000 -0.000001 0.000000 -0.000000 0.000001 0.000000 -0.000000 0.000001 0.000000 -0.000000 4.437355 1.304376 1.358364 35.817734 -2.280369 -71.771730 0.000123 -111.644182 0.000118 13.005901 -11.944011 18.187711 -6.414426 -8.233359 17.003701 23.512795 30.042037 -9.204223 0.000002 0.000006 -0.000002 4.227449 8.053759 -11.178607 3.419747 5.323573 -65.409368 0.000000 0.000000 -0.000000 2.853719 16.822930 -10.757296 4.358271 5.658065 -75.193928 0.000000 0.000001 -0.000001 6.796781 17.609379 -25.346670 3.509624 5.363643 -66.374365 0.000002 0.000000 -0.000004 5.467311 25.639760 -46.480656 3.715377 5.448630 -68.557928 0.000002 -0.000004 -0.000001 0.000000 0.000000 -0.000000 -0.446657 9.471462 10.863415 -6.972322 23.543510 52.072205 0.000049 73.776343 -0.000048 4.993419 29.793271 1.381688 -32.377153 17.810070 -30.533073 26.767472 -46.936520 5.967208 0.000001 0.000000 -0.000002 3.138858 -14.116185 15.049962 2.853019 -4.294206 67.185299 0.000001 0.000001 0.000000 2.872363 -13.070418 15.198952 2.485582 -4.120873 62.180335 -0.000000 -0.000002 0.000001 7.087456 -13.065643 37.168315 2.528077 -4.142961 62.770149 -0.000000 -0.000001 0.000003 -11.810947 -16.453786 14.028365 2.178090 -3.943732 57.809348 0.000001 0.000002 -0.000003 0.000002 -0.000002 -0.000002 -0.000003 -0.000001 0.000000 -0.000002 0.000000 -0.000000 -0.000003 -0.000001 0.000000 -0.000003 -0.000001 0.000000 -0.000003 -0.000001 0.000000 -0.000002 0.000000 -0.000000 -0.000003 -0.000001 0.000000 -0.000003 -0.000001 0.000000 -0.000003 -0.000001 0.000000 -0.000002 0.000000 -0.000000 0.000001 0.000000 0.000000 0.000001 0.000000 0.000000 0.000001 0.000000 0.000000 
-0.842592 68.270729 45.174122 15.181207 0.862765 3.421611 0.000000 0.000000 0.000000 -68.448707 3.324862 -3.755901 59.412954 6.974053 -1.231920 -8.495660 -2.907838 -1.298557 -0.000000 -0.000000 0.000000 -0.000001 0.000000 0.000000 7.603799 -5.388625 6.883982 29.387688 -1.578974 -8.225773 40.007816 4.396434 -7.493290 -0.000000 0.000000 -0.000000 -0.000001 0.000001 -0.000002 33.390507 5.789299 -13.647923 -2.765633 1.563850 1.138030 -2.808583 1.592233 1.004471 3.505770 -0.832525 -1.363215 -25.458979 -14.373991 3.246252 0.000002 0.000000 0.000000 0.000002 0.000000 0.000000 0.000002 0.000000 0.000000 0.000002 0.000000 0.000000 -0.000000 0.000000 0.000000 0.000002 0.000000 0.000000 -0.000000 0.000000 0.000000 0.000002 0.000000 0.000000 0.000002 0.000000 0.000000 4.082649 -2.588723 -5.838939 20.922338 -14.118374 -59.768704 0.001959 -93.338380 0.001952 9.791377 -16.825649 16.717870 -6.414429 -8.233362 17.003705 23.516220 30.046941 -9.208044 0.000000 0.000002 0.000002 3.382808 9.906132 5.405833 3.176026 5.205629 -62.753668 -0.000000 0.000004 0.000004 -2.805511 17.187234 11.546457 4.543792 5.703639 -77.068016 -0.000004 -0.000002 0.000000 6.261791 21.679271 -18.013483 3.375382 5.303167 -64.930292 0.000001 -0.000001 -0.000002 3.597576 28.583447 -41.418127 3.956636 5.536900 -71.078063 -0.000001 0.000001 0.000001 0.000000 -0.000002 0.000002 0.344075 6.119869 14.395426 2.045371 21.486242 55.642795 -0.000032 62.474477 0.000059 2.771912 35.453425 -1.150380 -5.978813 13.596251 -3.798294 41.781729 -56.353972 21.265533 -0.000003 0.000001 0.000001 13.880053 2.577390 32.234545 2.904998 -4.315649 67.877751 -0.000003 -0.000001 0.000000 0.969878 -5.063352 35.500755 2.587622 -4.172985 63.591377 -0.000002 -0.000001 0.000003 3.843668 -7.544513 51.305174 2.828793 -4.283998 66.861282 -0.000001 0.000002 -0.000002 4.469482 -10.901034 39.140904 2.252427 -3.989456 58.884010 -0.000001 -0.000003 0.000004 0.000001 0.000003 0.000001 -0.000000 0.000001 -0.000001 -0.000000 -0.000001 -0.000000 -0.000000 0.000001 -0.000001 -0.000000 0.000001 -0.000001 -0.000000 0.000001 -0.000001 -0.000000 -0.000001 0.000000 -0.000000 0.000001 -0.000001 -0.000000 0.000001 -0.000001 -0.000000 0.000001 -0.000001 -0.000000 -0.000001 0.000000 0.000000 0.000000 0.000000 0.000000 0.000000 0.000000 0.000000 0.000000 0.000000 
-0.756259 67.759521 59.312241 16.309874 0.474209 2.453120 0.000000 0.000000 0.000000 -53.077403 1.950990 -2.899477 31.545000 8.726578 -1.311244 -2.843061 2.550688 -9.599479 -0.000000 -0.000000 -0.000001 -0.000000 -0.000000 0.000000 -2.868310 -7.561091 5.803429 56.729847 -10.080639 -5.707698 40.396099 1.515409 -16.350754 -0.000000 0.000000 0.000000 -0.000000 0.000000 0.000001 28.436065 6.248722 -13.997163 1.541005 1.598720 0.379676 1.490900 1.621855 0.283612 1.990053 -0.785257 -1.145138 -29.116738 -15.320372 6.501695 0.000000 0.000000 0.000000 0.000000 0.000000 0.000000 0.000000 0.000000 0.000000 0.000000 0.000000 0.000000 0.000000 -0.000000 0.000000 0.000000 0.000000 0.000000 0.000000 -0.000000 0.000000 0.000000 0.000000 0.000000 0.000000 0.000000 0.000000 2.497079 -7.001688 -14.624261 9.372484 -27.815804 -47.675711 0.000009 -83.200720 0.000031 6.344113 -31.593887 19.870048 -6.414429 -8.233361 17.003703 24.888222 31.852796 -10.720129 -0.000001 0.000002 -0.000001 3.713408 7.468585 -6.689792 3.253414 5.244609 -63.603418 0.000000 0.000000 0.000002 3.593841 19.279725 -11.542907 4.362405 5.659143 -75.235893 0.000005 0.000002 -0.000001 13.731242 18.215435 -45.481123 3.121243 5.177199 -62.148096 -0.000004 -0.000001 -0.000001 7.288811 23.996620 -51.785972 3.998721 5.551082 -71.513583 -0.000003 0.000001 -0.000000 -0.000001 -0.000002 -0.000003 1.437097 1.997068 15.759395 6.622132 14.687494 51.155101 0.000014 64.433266 -0.000018 2.973748 41.540657 -4.655760 -6.697025 7.238165 -17.467367 23.615371 -43.300824 2.521499 -0.000003 -0.000001 0.000000 9.281662 -5.027412 22.125554 2.803417 -4.273062 66.520927 -0.000001 0.000000 0.000000 2.943564 -8.187357 32.269072 2.420523 -4.085966 61.271045 -0.000002 0.000001 0.000001 5.847993 -9.765841 46.432422 2.642963 -4.199958 64.349705 0.000002 0.000003 -0.000002 1.952276 -17.753470 37.082463 2.212286 -3.965002 58.305165 -0.000000 0.000001 0.000001 0.000001 0.000001 0.000001 0.000002 0.000001 0.000000 -0.000000 0.000000 -0.000001 0.000002 0.000001 0.000000 0.000002 0.000001 0.000000 0.000002 0.000001 0.000000 -0.000000 0.000000 -0.000000 0.000002 0.000001 0.000000 0.000002 0.000001 0.000000 0.000002 0.000001 0.000000 -0.000000 0.000000 -0.000000 0.000000 0.000000 0.000000 0.000000 0.000000 0.000000 0.000000 0.000000 0.000000 
